# xmcd
#
# Track frame offsets: 
#        150
#        10797
#        25924
#        36084
#        56563
#        72021
#        82857
#        96168
#        107966
#        120802
#        133211
#        144259
#        156882
#        170694
#        182950
#        196345
#        205818
#        220682
#        235088
#
# Disc length: 3394 seconds
#
# Revision: 0
# Processed by: cddbd v1.5.2PL0 Copyright (c) Steve Scherf et al.
# Submitted via: ExactAudioCopy v1.1
#
DISCID=fd0d4013
DTITLE=Paul Butterfield Blues Band - The Original Lost Elektra Session
DTITLE=s
DYEAR=1964
DGENRE=Blues
TTITLE0=Good Morning Little Schoolgirl (1995 remix) (stereo)
TTITLE1=Just To Be With You (stereo)
TTITLE2=Help Me (stereo)
TTITLE3=Hate To See You Go (stereo)
TTITLE4=Poor Boy (stereo)
TTITLE5=Nut Popper #1 (stereo)
TTITLE6=Everything's Gonna Be All Right (stereo)
TTITLE7=Lovin' Cup (1995 remix) (stereo)
TTITLE8=Rock Me (stereo)
TTITLE9=It Hurts Me Too (stereo)
TTITLE10=Our Love Is Drifting (1964) (stereo)
TTITLE11=Take Me Back Baby (stereo)
TTITLE12=Mellow Down Easy (1964) (stereo)
TTITLE13=Ain't No Need To Go No Further (stereo)
TTITLE14=Love Her With A Feeling (stereo)
TTITLE15=Piney Brown Blues (stereo)
TTITLE16=Spoonful (1995 remix) (stereo)
TTITLE17=That's All Right (stereo)
TTITLE18=Goin' Down Slow (stereo)
EXTD=
EXTT0=
EXTT1=
EXTT2=
EXTT3=
EXTT4=
EXTT5=
EXTT6=
EXTT7=
EXTT8=
EXTT9=
EXTT10=
EXTT11=
EXTT12=
EXTT13=
EXTT14=
EXTT15=
EXTT16=
EXTT17=
EXTT18=
PLAYORDER=
